<svg viewBox="0 0 48 48" fill="none" xmlns="http://www.w3.org/2000/svg">
<path d="M21.56 0.5H2C1.60218 0.5 1.22064 0.65804 0.93934 0.93934C0.65804 1.22064 0.5 1.60218 0.5 2V21.56C0.5 21.9578 0.65804 22.3394 0.93934 22.6207C1.22064 22.902 1.60218 23.06 2 23.06H21.56C21.957 23.0574 22.337 22.8985 22.6178 22.6178C22.8985 22.337 23.0574 21.957 23.06 21.56V2C23.06 1.60218 22.902 1.22064 22.6207 0.93934C22.3394 0.65804 21.9578 0.5 21.56 0.5ZM20.06 20.06H3.5V3.5H20.06V20.06Z" />
<path d="M28.8901 20.6104H43.5601C43.958 20.6104 44.3395 20.4524 44.6208 20.1711C44.9021 19.8898 45.0601 19.5083 45.0601 19.1104V4.4404C45.0575 4.0434 44.8986 3.6634 44.6179 3.3827C44.3372 3.1019 43.9572 2.9431 43.5601 2.9404H28.8901C28.4923 2.9404 28.1108 3.0985 27.8295 3.3798C27.5482 3.6611 27.3901 4.0426 27.3901 4.4404V19.1104C27.3901 19.5083 27.5482 19.8898 27.8295 20.1711C28.1108 20.4524 28.4923 20.6104 28.8901 20.6104ZM30.3901 5.9404H42.0601V17.6104H30.3901V5.9404Z" />
<path d="M19.1099 27.3896H4.43991C4.04211 27.3896 3.66061 27.5477 3.37931 27.829C3.09801 28.1103 2.93991 28.4918 2.93991 28.8896V43.5597C2.94261 43.9567 3.10141 44.3367 3.38221 44.6174C3.66291 44.8982 4.04291 45.057 4.43991 45.0597H19.1099C19.5078 45.0597 19.8893 44.9016 20.1706 44.6203C20.4519 44.339 20.6099 43.9575 20.6099 43.5597V28.8896C20.6099 28.4918 20.4519 28.1103 20.1706 27.829C19.8893 27.5477 19.5078 27.3896 19.1099 27.3896ZM17.6099 42.0597H5.93991V30.3896H17.6099V42.0597Z" />
<path d="M45.9999 24.9404H26.4399C26.0429 24.9431 25.6629 25.1019 25.3822 25.3827C25.1014 25.6634 24.9426 26.0434 24.9399 26.4404V46.0004C24.9399 46.3983 25.098 46.7798 25.3793 47.0611C25.6606 47.3424 26.0421 47.5004 26.4399 47.5004H45.9999C46.3978 47.5004 46.7793 47.3424 47.0606 47.0611C47.3419 46.7798 47.4999 46.3983 47.4999 46.0004V26.4404C47.4999 26.0426 47.3419 25.6611 47.0606 25.3798C46.7793 25.0985 46.3978 24.9404 45.9999 24.9404ZM44.4999 44.5004H27.9399V27.9404H44.4999V44.5004Z" />
</svg>
